<svg width="228" height="36" viewBox="0 0 228 36" fill="none" xmlns="http://www.w3.org/2000/svg">
<path d="M11.896 3.8C14.128 3.8 16.06 4.172 17.692 4.916C19.348 5.66 20.62 6.716 21.508 8.084C22.396 9.452 22.84 11.072 22.84 12.944C22.84 14.792 22.396 16.412 21.508 17.804C20.62 19.172 19.348 20.228 17.692 20.972C16.06 21.692 14.128 22.052 11.896 22.052H6.82V29H0.988V3.8H11.896ZM11.572 17.3C13.324 17.3 14.656 16.928 15.568 16.184C16.48 15.416 16.936 14.336 16.936 12.944C16.936 11.528 16.48 10.448 15.568 9.704C14.656 8.936 13.324 8.552 11.572 8.552H6.82V17.3H11.572ZM29.4876 9.632H35.1036V29H29.4876V9.632ZM32.2956 6.932C31.2636 6.932 30.4236 6.632 29.7756 6.032C29.1276 5.432 28.8036 4.688 28.8036 3.8C28.8036 2.912 29.1276 2.168 29.7756 1.568C30.4236 0.967998 31.2636 0.667998 32.2956 0.667998C33.3276 0.667998 34.1676 0.955998 34.8156 1.532C35.4636 2.108 35.7876 2.828 35.7876 3.692C35.7876 4.628 35.4636 5.408 34.8156 6.032C34.1676 6.632 33.3276 6.932 32.2956 6.932ZM59.1438 24.68V29H41.8638V25.616L51.7278 13.952H42.1158V9.632H58.8198V13.016L48.9558 24.68H59.1438ZM81.5706 24.68V29H64.2906V25.616L74.1546 13.952H64.5426V9.632H81.2466V13.016L71.3826 24.68H81.5706ZM95.8615 9.344C98.8615 9.344 101.166 10.064 102.774 11.504C104.382 12.92 105.186 15.068 105.186 17.948V29H99.9295V26.588C98.8735 28.388 96.9055 29.288 94.0255 29.288C92.5375 29.288 91.2415 29.036 90.1375 28.532C89.0575 28.028 88.2295 27.332 87.6535 26.444C87.0775 25.556 86.7895 24.548 86.7895 23.42C86.7895 21.62 87.4615 20.204 88.8055 19.172C90.1735 18.14 92.2735 17.624 95.1055 17.624H99.5695C99.5695 16.4 99.1975 15.464 98.4535 14.816C97.7095 14.144 96.5935 13.808 95.1055 13.808C94.0735 13.808 93.0535 13.976 92.0455 14.312C91.0615 14.624 90.2215 15.056 89.5255 15.608L87.5095 11.684C88.5655 10.94 89.8255 10.364 91.2895 9.956C92.7775 9.548 94.3015 9.344 95.8615 9.344ZM95.4295 25.508C96.3895 25.508 97.2415 25.292 97.9855 24.86C98.7295 24.404 99.2575 23.744 99.5695 22.88V20.9H95.7175C93.4135 20.9 92.2615 21.656 92.2615 23.168C92.2615 23.888 92.5375 24.464 93.0895 24.896C93.6655 25.304 94.4455 25.508 95.4295 25.508Z" fill="#6B2424"/>
<path d="M134.9 29.432C132.908 29.432 130.976 29.168 129.104 28.64C127.256 28.088 125.768 27.38 124.64 26.516L126.62 22.124C127.7 22.916 128.984 23.552 130.472 24.032C131.96 24.512 133.448 24.752 134.936 24.752C136.592 24.752 137.816 24.512 138.608 24.032C139.4 23.528 139.796 22.868 139.796 22.052C139.796 21.452 139.556 20.96 139.076 20.576C138.62 20.168 138.02 19.844 137.276 19.604C136.556 19.364 135.572 19.1 134.324 18.812C132.404 18.356 130.832 17.9 129.608 17.444C128.384 16.988 127.328 16.256 126.44 15.248C125.576 14.24 125.144 12.896 125.144 11.216C125.144 9.752 125.54 8.432 126.332 7.256C127.124 6.056 128.312 5.108 129.896 4.412C131.504 3.716 133.46 3.368 135.764 3.368C137.372 3.368 138.944 3.56 140.48 3.944C142.016 4.328 143.36 4.88 144.512 5.6L142.712 10.028C140.384 8.708 138.056 8.048 135.728 8.048C134.096 8.048 132.884 8.312 132.092 8.84C131.324 9.368 130.94 10.064 130.94 10.928C130.94 11.792 131.384 12.44 132.272 12.872C133.184 13.28 134.564 13.688 136.412 14.096C138.332 14.552 139.904 15.008 141.128 15.464C142.352 15.92 143.396 16.64 144.26 17.624C145.148 18.608 145.592 19.94 145.592 21.62C145.592 23.06 145.184 24.38 144.368 25.58C143.576 26.756 142.376 27.692 140.768 28.388C139.16 29.084 137.204 29.432 134.9 29.432ZM163.833 9.344C166.233 9.344 168.165 10.064 169.629 11.504C171.117 12.944 171.861 15.08 171.861 17.912V29H166.245V18.776C166.245 17.24 165.909 16.1 165.237 15.356C164.565 14.588 163.593 14.204 162.321 14.204C160.905 14.204 159.777 14.648 158.937 15.536C158.097 16.4 157.677 17.696 157.677 19.424V29H152.061V2.288H157.677V11.648C158.421 10.904 159.321 10.34 160.377 9.956C161.433 9.548 162.585 9.344 163.833 9.344ZM189.258 29.288C187.218 29.288 185.382 28.868 183.75 28.028C182.142 27.164 180.882 25.976 179.97 24.464C179.058 22.952 178.602 21.236 178.602 19.316C178.602 17.396 179.058 15.68 179.97 14.168C180.882 12.656 182.142 11.48 183.75 10.64C185.382 9.776 187.218 9.344 189.258 9.344C191.298 9.344 193.122 9.776 194.73 10.64C196.338 11.48 197.598 12.656 198.51 14.168C199.422 15.68 199.878 17.396 199.878 19.316C199.878 21.236 199.422 22.952 198.51 24.464C197.598 25.976 196.338 27.164 194.73 28.028C193.122 28.868 191.298 29.288 189.258 29.288ZM189.258 24.68C190.698 24.68 191.874 24.2 192.786 23.24C193.722 22.256 194.19 20.948 194.19 19.316C194.19 17.684 193.722 16.388 192.786 15.428C191.874 14.444 190.698 13.952 189.258 13.952C187.818 13.952 186.63 14.444 185.694 15.428C184.758 16.388 184.29 17.684 184.29 19.316C184.29 20.948 184.758 22.256 185.694 23.24C186.63 24.2 187.818 24.68 189.258 24.68ZM217.96 9.344C219.76 9.344 221.392 9.764 222.856 10.604C224.344 11.42 225.508 12.584 226.348 14.096C227.188 15.584 227.608 17.324 227.608 19.316C227.608 21.308 227.188 23.06 226.348 24.572C225.508 26.06 224.344 27.224 222.856 28.064C221.392 28.88 219.76 29.288 217.96 29.288C215.488 29.288 213.544 28.508 212.128 26.948V35.984H206.512V9.632H211.876V11.864C213.268 10.184 215.296 9.344 217.96 9.344ZM216.988 24.68C218.428 24.68 219.604 24.2 220.516 23.24C221.452 22.256 221.92 20.948 221.92 19.316C221.92 17.684 221.452 16.388 220.516 15.428C219.604 14.444 218.428 13.952 216.988 13.952C215.548 13.952 214.36 14.444 213.424 15.428C212.512 16.388 212.056 17.684 212.056 19.316C212.056 20.948 212.512 22.256 213.424 23.24C214.36 24.2 215.548 24.68 216.988 24.68Z" fill="#FF7A00"/>
</svg>
