<svg width="8" height="12" viewBox="0 0 8 12" fill="none" xmlns="http://www.w3.org/2000/svg">
<path d="M2.59 11L6.83 6.71C6.92373 6.61704 6.99813 6.50644 7.04889 6.38458C7.09966 6.26272 7.1258 6.13201 7.1258 6C7.1258 5.86799 7.09966 5.73728 7.04889 5.61542C6.99813 5.49356 6.92373 5.38296 6.83 5.29L2.59 1.05C2.49704 0.956272 2.38644 0.881877 2.26458 0.831109C2.14272 0.78034 2.01201 0.754202 1.88 0.754202C1.74799 0.754202 1.61729 0.78034 1.49543 0.831109C1.37357 0.881877 1.26297 0.956272 1.17 1.05C0.983752 1.23736 0.87921 1.49081 0.87921 1.755C0.87921 2.01919 0.983752 2.27264 1.17 2.46L4.71 6L1.17 9.54C0.985259 9.72626 0.881108 9.97766 0.880003 10.24C0.879242 10.3716 0.904467 10.5021 0.954231 10.6239C1.004 10.7457 1.07732 10.8566 1.17 10.95C1.25962 11.0471 1.36759 11.1254 1.48766 11.1805C1.60774 11.2356 1.73754 11.2664 1.86958 11.2711C2.00161 11.2757 2.13326 11.2541 2.25692 11.2076C2.38057 11.1611 2.49378 11.0905 2.59 11Z" fill="#FF7A00"/>
</svg>
