<svg width="8" height="12" viewBox="0 0 8 12" fill="none" xmlns="http://www.w3.org/2000/svg">
<path d="M5.41 1L1.17 5.29C1.07628 5.38296 1.00188 5.49356 0.951114 5.61542C0.900345 5.73728 0.874207 5.86799 0.874207 6C0.874207 6.13201 0.900345 6.26272 0.951114 6.38458C1.00188 6.50644 1.07628 6.61704 1.17 6.71L5.41 10.95C5.50297 11.0437 5.61357 11.1181 5.73543 11.1689C5.85729 11.2197 5.98799 11.2458 6.12 11.2458C6.25202 11.2458 6.38272 11.2197 6.50458 11.1689C6.62644 11.1181 6.73704 11.0437 6.83 10.95C7.01626 10.7626 7.1208 10.5092 7.1208 10.245C7.1208 9.98081 7.01626 9.72736 6.83 9.54L3.29 6L6.83 2.46C7.01475 2.27374 7.1189 2.02234 7.12 1.76C7.12077 1.62839 7.09554 1.49793 7.04578 1.37609C6.99601 1.25426 6.92269 1.14344 6.83 1.05C6.74039 0.952925 6.63242 0.874571 6.51235 0.819464C6.39227 0.764357 6.26246 0.73359 6.13043 0.728941C5.99839 0.724292 5.86675 0.745852 5.74309 0.792377C5.61944 0.838902 5.50623 0.909469 5.41 1Z" fill="#8D8A87"/>
</svg>
