<svg width="13" height="13" viewBox="0 0 13 13" fill="none" xmlns="http://www.w3.org/2000/svg">
<path d="M12.75 5.04378C12.7105 4.92946 12.6387 4.82905 12.5433 4.75472C12.4479 4.68039 12.333 4.63534 12.2125 4.62503L8.65625 4.10628L7.0625 0.87503C7.01132 0.76936 6.93141 0.680243 6.83193 0.617888C6.73245 0.555533 6.61741 0.522461 6.5 0.522461C6.38259 0.522461 6.26755 0.555533 6.16807 0.617888C6.06859 0.680243 5.98868 0.76936 5.9375 0.87503L4.34375 4.10003L0.787501 4.62503C0.671828 4.64147 0.563079 4.69001 0.473595 4.76513C0.384111 4.84025 0.317476 4.93895 0.281251 5.05003C0.248092 5.15858 0.245116 5.2741 0.272644 5.38421C0.300171 5.49432 0.357162 5.59486 0.437501 5.67503L3.01875 8.17503L2.39375 11.725C2.37144 11.8422 2.38312 11.9633 2.42742 12.0741C2.47172 12.1848 2.54678 12.2806 2.64375 12.35C2.73826 12.4176 2.84973 12.4575 2.96566 12.4652C3.08158 12.4729 3.19736 12.4482 3.3 12.3938L6.5 10.725L9.6875 12.4C9.77522 12.4495 9.87429 12.4754 9.975 12.475C10.1074 12.4755 10.2365 12.4339 10.3438 12.3563C10.4407 12.2868 10.5158 12.1911 10.5601 12.0803C10.6044 11.9696 10.6161 11.8485 10.5937 11.7313L9.96875 8.18128L12.55 5.68128C12.6402 5.60483 12.7069 5.50434 12.7423 5.3915C12.7777 5.27865 12.7804 5.15808 12.75 5.04378ZM8.90625 7.54378C8.83295 7.61468 8.77812 7.70243 8.74652 7.79939C8.71493 7.89635 8.70754 7.99956 8.725 8.10003L9.175 10.7188L6.825 9.46878C6.73457 9.42063 6.6337 9.39545 6.53125 9.39545C6.4288 9.39545 6.32793 9.42063 6.2375 9.46878L3.8875 10.7188L4.3375 8.10003C4.35496 7.99956 4.34757 7.89635 4.31598 7.79939C4.28439 7.70243 4.22955 7.61468 4.15625 7.54378L2.28125 5.66878L4.9125 5.28753C5.01375 5.27345 5.11 5.23474 5.19281 5.17481C5.27563 5.11488 5.34247 5.03555 5.3875 4.94378L6.5 2.56253L7.675 4.95003C7.72003 5.0418 7.78688 5.12113 7.86969 5.18106C7.9525 5.24099 8.04875 5.2797 8.15 5.29378L10.7812 5.67503L8.90625 7.54378Z" fill="#FFA800"/>
</svg>
